<svg width="162" height="38" viewBox="0 0 162 38" fill="none" xmlns="http://www.w3.org/2000/svg">
<path d="M162 22.2499V27.2839H157V22.2499H162Z" fill="#4FFF4B"/>
<path d="M20.412 1.83995V6.8055H13.716V27.2839H7.56001V6.8055H0.864014V1.83995H20.412Z" fill="white"/>
<path d="M35.8495 6.84175C38.1535 6.84175 40.0015 7.61497 41.3935 9.16142C42.7855 10.6837 43.4815 12.7859 43.4815 15.468V27.2839H37.3615V16.3017C37.3615 14.9485 37.0135 13.8974 36.3175 13.1484C35.6215 12.3993 34.6855 12.0248 33.5095 12.0248C32.3335 12.0248 31.3975 12.3993 30.7015 13.1484C30.0055 13.8974 29.6575 14.9485 29.6575 16.3017V27.2839H23.5015V0.462646H29.6575V9.77759C30.2815 8.88354 31.1335 8.17073 32.2135 7.63914C33.2935 7.10754 34.5055 6.84175 35.8495 6.84175Z" fill="white"/>
<path d="M66.6954 16.8453C66.6954 17.4253 66.6594 18.0293 66.5874 18.6576H52.6554C52.7514 19.9141 53.1474 20.8806 53.8434 21.5572C54.5634 22.2096 55.4394 22.5358 56.4714 22.5358C58.0074 22.5358 59.0754 21.8834 59.6754 20.5786H66.2274C65.8914 21.9075 65.2794 23.1036 64.3914 24.1668C63.5274 25.23 62.4354 26.0636 61.1154 26.6677C59.7954 27.2718 58.3194 27.5738 56.6874 27.5738C54.7194 27.5738 52.9674 27.151 51.4314 26.3053C49.8954 25.4595 48.6954 24.2514 47.8314 22.6808C46.9674 21.1102 46.5354 19.2738 46.5354 17.1715C46.5354 15.0693 46.9554 13.2329 47.7954 11.6623C48.6594 10.0917 49.8594 8.88354 51.3954 8.03783C52.9314 7.19212 54.6954 6.76926 56.6874 6.76926C58.6314 6.76926 60.3594 7.18003 61.8714 8.00159C63.3834 8.82314 64.5594 9.99506 65.3994 11.5173C66.2634 13.0396 66.6954 14.8156 66.6954 16.8453ZM60.3954 15.2143C60.3954 14.1511 60.0354 13.3054 59.3154 12.6772C58.5954 12.0489 57.6954 11.7348 56.6154 11.7348C55.5834 11.7348 54.7074 12.0369 53.9874 12.6409C53.2914 13.245 52.8594 14.1028 52.6914 15.2143H60.3954Z" fill="white"/>
<path d="M92.8719 14.2357C94.3359 14.5498 95.5119 15.2868 96.3999 16.4466C97.2879 17.5823 97.7319 18.8871 97.7319 20.3611C97.7319 22.4875 96.9879 24.1789 95.4999 25.4354C94.0359 26.6677 91.9839 27.2839 89.3439 27.2839H77.5719V1.83995H88.9479C91.5159 1.83995 93.5199 2.43195 94.9599 3.61595C96.4239 4.79995 97.1559 6.40681 97.1559 8.43652C97.1559 9.93465 96.7599 11.1791 95.9679 12.1697C95.1999 13.1604 94.1679 13.8491 92.8719 14.2357ZM83.7279 12.1335H87.7599C88.7679 12.1335 89.5359 11.916 90.0639 11.4811C90.6159 11.022 90.8919 10.3575 90.8919 9.48763C90.8919 8.61775 90.6159 7.95326 90.0639 7.49416C89.5359 7.03506 88.7679 6.8055 87.7599 6.8055H83.7279V12.1335ZM88.2639 22.2821C89.2959 22.2821 90.0879 22.0525 90.6399 21.5934C91.2159 21.1102 91.5039 20.4215 91.5039 19.5275C91.5039 18.6334 91.2039 17.9327 90.6039 17.4253C90.0279 16.9178 89.2239 16.6641 88.1919 16.6641H83.7279V22.2821H88.2639Z" fill="white"/>
<path d="M107.458 0.462646V27.2839H101.302V0.462646H107.458Z" fill="white"/>
<path d="M121.064 27.5738C119.096 27.5738 117.32 27.151 115.736 26.3053C114.176 25.4595 112.94 24.2514 112.028 22.6808C111.14 21.1102 110.696 19.2738 110.696 17.1715C110.696 15.0935 111.152 13.2692 112.064 11.6986C112.976 10.1038 114.224 8.88354 115.808 8.03783C117.392 7.19212 119.168 6.76926 121.136 6.76926C123.104 6.76926 124.88 7.19212 126.464 8.03783C128.048 8.88354 129.296 10.1038 130.208 11.6986C131.12 13.2692 131.576 15.0935 131.576 17.1715C131.576 19.2496 131.108 21.086 130.172 22.6808C129.26 24.2514 128 25.4595 126.392 26.3053C124.808 27.151 123.032 27.5738 121.064 27.5738ZM121.064 22.2096C122.24 22.2096 123.236 21.7746 124.052 20.9048C124.892 20.0349 125.312 18.7905 125.312 17.1715C125.312 15.5526 124.904 14.3082 124.088 13.4383C123.296 12.5684 122.312 12.1335 121.136 12.1335C119.936 12.1335 118.94 12.5684 118.148 13.4383C117.356 14.284 116.96 15.5284 116.96 17.1715C116.96 18.7905 117.344 20.0349 118.112 20.9048C118.904 21.7746 119.888 22.2096 121.064 22.2096Z" fill="white"/>
<path d="M142.473 6.76926C143.889 6.76926 145.125 7.05922 146.181 7.63914C147.261 8.21905 148.089 8.9802 148.665 9.92256V7.05922H154.821V27.2476C154.821 29.1082 154.449 30.7875 153.705 32.2857C152.985 33.808 151.869 35.0161 150.357 35.9102C148.869 36.8042 147.009 37.2512 144.777 37.2512C141.801 37.2512 139.389 36.5384 137.541 35.1128C135.693 33.7113 134.637 31.8024 134.373 29.3861H140.457C140.649 30.1593 141.105 30.7634 141.825 31.1983C142.545 31.6574 143.433 31.887 144.489 31.887C145.761 31.887 146.769 31.5124 147.513 30.7634C148.281 30.0385 148.665 28.8666 148.665 27.2476V24.3843C148.065 25.3266 147.237 26.0999 146.181 26.704C145.125 27.2839 143.889 27.5738 142.473 27.5738C140.817 27.5738 139.317 27.151 137.973 26.3053C136.629 25.4354 135.561 24.2151 134.769 22.6445C134.001 21.0497 133.617 19.2133 133.617 17.1353C133.617 15.0573 134.001 13.2329 134.769 11.6623C135.561 10.0917 136.629 8.88354 137.973 8.03783C139.317 7.19212 140.817 6.76926 142.473 6.76926ZM148.665 17.1715C148.665 15.6251 148.233 14.4049 147.369 13.5108C146.529 12.6168 145.497 12.1697 144.273 12.1697C143.049 12.1697 142.005 12.6168 141.141 13.5108C140.301 14.3807 139.881 15.5889 139.881 17.1353C139.881 18.6817 140.301 19.9141 141.141 20.8323C142.005 21.7263 143.049 22.1733 144.273 22.1733C145.497 22.1733 146.529 21.7263 147.369 20.8323C148.233 19.9382 148.665 18.718 148.665 17.1715Z" fill="white"/>
</svg>
